<svg width="181" height="33" viewBox="0 0 181 33" fill="none" xmlns="http://www.w3.org/2000/svg">
<path d="M47.1 29V8H57.03C59.35 8 61.39 8.43 63.15 9.29C64.91 10.15 66.28 11.36 67.26 12.92C68.26 14.48 68.76 16.34 68.76 18.5C68.76 20.64 68.26 22.5 67.26 24.08C66.28 25.64 64.91 26.85 63.15 27.71C61.39 28.57 59.35 29 57.03 29H47.1ZM53.04 24.26H56.79C57.99 24.26 59.03 24.04 59.91 23.6C60.81 23.14 61.51 22.48 62.01 21.62C62.51 20.74 62.76 19.7 62.76 18.5C62.76 17.28 62.51 16.24 62.01 15.38C61.51 14.52 60.81 13.87 59.91 13.43C59.03 12.97 57.99 12.74 56.79 12.74H53.04V24.26ZM77.3452 16.13H87.0952V20.57H77.3452V16.13ZM77.7652 24.41H88.7452V29H71.8852V8H88.3552V12.59H77.7652V24.41ZM102.541 29.42C100.881 29.42 99.3414 29.16 97.9214 28.64C96.5014 28.1 95.2714 27.34 94.2314 26.36C93.2114 25.38 92.4114 24.23 91.8314 22.91C91.2514 21.57 90.9614 20.1 90.9614 18.5C90.9614 16.9 91.2514 15.44 91.8314 14.12C92.4114 12.78 93.2214 11.62 94.2614 10.64C95.3014 9.66 96.5314 8.91 97.9514 8.39C99.3914 7.85 100.961 7.58 102.661 7.58C104.641 7.58 106.411 7.91 107.971 8.57C109.531 9.23 110.821 10.18 111.841 11.42L108.061 14.84C107.341 14.06 106.561 13.48 105.721 13.1C104.901 12.7 103.981 12.5 102.961 12.5C102.061 12.5 101.241 12.64 100.501 12.92C99.7614 13.2 99.1314 13.61 98.6114 14.15C98.0914 14.67 97.6814 15.3 97.3814 16.04C97.1014 16.76 96.9614 17.58 96.9614 18.5C96.9614 19.38 97.1014 20.19 97.3814 20.93C97.6814 21.67 98.0914 22.31 98.6114 22.85C99.1314 23.37 99.7514 23.78 100.471 24.08C101.211 24.36 102.021 24.5 102.901 24.5C103.781 24.5 104.641 24.36 105.481 24.08C106.321 23.78 107.171 23.28 108.031 22.58L111.361 26.75C110.161 27.61 108.771 28.27 107.191 28.73C105.611 29.19 104.061 29.42 102.541 29.42ZM106.111 25.97V18.05H111.361V26.75L106.111 25.97ZM115.127 29V8H124.727C126.647 8 128.297 8.31 129.677 8.93C131.077 9.55 132.157 10.45 132.917 11.63C133.677 12.79 134.057 14.17 134.057 15.77C134.057 17.35 133.677 18.72 132.917 19.88C132.157 21.02 131.077 21.9 129.677 22.52C128.297 23.12 126.647 23.42 124.727 23.42H118.427L121.067 20.93V29H115.127ZM128.117 29L122.897 21.35H129.227L134.477 29H128.117ZM121.067 21.56L118.427 18.83H124.367C125.607 18.83 126.527 18.56 127.127 18.02C127.747 17.48 128.057 16.73 128.057 15.77C128.057 14.79 127.747 14.03 127.127 13.49C126.527 12.95 125.607 12.68 124.367 12.68H118.427L121.067 9.95V21.56ZM142.794 16.13H152.544V20.57H142.794V16.13ZM143.214 24.41H154.194V29H137.334V8H153.804V12.59H143.214V24.41ZM162.951 16.13H172.701V20.57H162.951V16.13ZM163.371 24.41H174.351V29H157.491V8H173.961V12.59H163.371V24.41Z" fill="white"/>
<path d="M47.1 29V8H57.03C59.35 8 61.39 8.43 63.15 9.29C64.91 10.15 66.28 11.36 67.26 12.92C68.26 14.48 68.76 16.34 68.76 18.5C68.76 20.64 68.26 22.5 67.26 24.08C66.28 25.64 64.91 26.85 63.15 27.71C61.39 28.57 59.35 29 57.03 29H47.1ZM53.04 24.26H56.79C57.99 24.26 59.03 24.04 59.91 23.6C60.81 23.14 61.51 22.48 62.01 21.62C62.51 20.74 62.76 19.7 62.76 18.5C62.76 17.28 62.51 16.24 62.01 15.38C61.51 14.52 60.81 13.87 59.91 13.43C59.03 12.97 57.99 12.74 56.79 12.74H53.04V24.26ZM77.3452 16.13H87.0952V20.57H77.3452V16.13ZM77.7652 24.41H88.7452V29H71.8852V8H88.3552V12.59H77.7652V24.41ZM102.541 29.42C100.881 29.42 99.3414 29.16 97.9214 28.64C96.5014 28.1 95.2714 27.34 94.2314 26.36C93.2114 25.38 92.4114 24.23 91.8314 22.91C91.2514 21.57 90.9614 20.1 90.9614 18.5C90.9614 16.9 91.2514 15.44 91.8314 14.12C92.4114 12.78 93.2214 11.62 94.2614 10.64C95.3014 9.66 96.5314 8.91 97.9514 8.39C99.3914 7.85 100.961 7.58 102.661 7.58C104.641 7.58 106.411 7.91 107.971 8.57C109.531 9.23 110.821 10.18 111.841 11.42L108.061 14.84C107.341 14.06 106.561 13.48 105.721 13.1C104.901 12.7 103.981 12.5 102.961 12.5C102.061 12.5 101.241 12.64 100.501 12.92C99.7614 13.2 99.1314 13.61 98.6114 14.15C98.0914 14.67 97.6814 15.3 97.3814 16.04C97.1014 16.76 96.9614 17.58 96.9614 18.5C96.9614 19.38 97.1014 20.19 97.3814 20.93C97.6814 21.67 98.0914 22.31 98.6114 22.85C99.1314 23.37 99.7514 23.78 100.471 24.08C101.211 24.36 102.021 24.5 102.901 24.5C103.781 24.5 104.641 24.36 105.481 24.08C106.321 23.78 107.171 23.28 108.031 22.58L111.361 26.75C110.161 27.61 108.771 28.27 107.191 28.73C105.611 29.19 104.061 29.42 102.541 29.42ZM106.111 25.97V18.05H111.361V26.75L106.111 25.97ZM115.127 29V8H124.727C126.647 8 128.297 8.31 129.677 8.93C131.077 9.55 132.157 10.45 132.917 11.63C133.677 12.79 134.057 14.17 134.057 15.77C134.057 17.35 133.677 18.72 132.917 19.88C132.157 21.02 131.077 21.9 129.677 22.52C128.297 23.12 126.647 23.42 124.727 23.42H118.427L121.067 20.93V29H115.127ZM128.117 29L122.897 21.35H129.227L134.477 29H128.117ZM121.067 21.56L118.427 18.83H124.367C125.607 18.83 126.527 18.56 127.127 18.02C127.747 17.48 128.057 16.73 128.057 15.77C128.057 14.79 127.747 14.03 127.127 13.49C126.527 12.95 125.607 12.68 124.367 12.68H118.427L121.067 9.95V21.56ZM142.794 16.13H152.544V20.57H142.794V16.13ZM143.214 24.41H154.194V29H137.334V8H153.804V12.59H143.214V24.41ZM162.951 16.13H172.701V20.57H162.951V16.13ZM163.371 24.41H174.351V29H157.491V8H173.961V12.59H163.371V24.41Z" fill="white"/>
<path d="M1.4 23V9H8.02C9.56667 9 10.9267 9.28667 12.1 9.86C13.2733 10.4333 14.1867 11.24 14.84 12.28C15.5067 13.32 15.84 14.56 15.84 16C15.84 17.4267 15.5067 18.6667 14.84 19.72C14.1867 20.76 13.2733 21.5667 12.1 22.14C10.9267 22.7133 9.56667 23 8.02 23H1.4ZM5.36 19.84H7.86C8.66 19.84 9.35333 19.6933 9.94 19.4C10.54 19.0933 11.0067 18.6533 11.34 18.08C11.6733 17.4933 11.84 16.8 11.84 16C11.84 15.1867 11.6733 14.4933 11.34 13.92C11.0067 13.3467 10.54 12.9133 9.94 12.62C9.35333 12.3133 8.66 12.16 7.86 12.16H5.36V19.84ZM17.9234 23V9H21.8834V23H17.9234ZM31.7008 23.28C30.5941 23.28 29.5674 23.1067 28.6208 22.76C27.6741 22.4 26.8541 21.8933 26.1608 21.24C25.4808 20.5867 24.9474 19.82 24.5608 18.94C24.1741 18.0467 23.9808 17.0667 23.9808 16C23.9808 14.9333 24.1741 13.96 24.5608 13.08C24.9474 12.1867 25.4874 11.4133 26.1808 10.76C26.8741 10.1067 27.6941 9.60667 28.6408 9.26C29.6008 8.9 30.6474 8.72 31.7808 8.72C33.1008 8.72 34.2808 8.94 35.3208 9.38C36.3608 9.82 37.2208 10.4533 37.9008 11.28L35.3808 13.56C34.9008 13.04 34.3808 12.6533 33.8208 12.4C33.2741 12.1333 32.6608 12 31.9808 12C31.3808 12 30.8341 12.0933 30.3408 12.28C29.8474 12.4667 29.4274 12.74 29.0808 13.1C28.7341 13.4467 28.4608 13.8667 28.2608 14.36C28.0741 14.84 27.9808 15.3867 27.9808 16C27.9808 16.5867 28.0741 17.1267 28.2608 17.62C28.4608 18.1133 28.7341 18.54 29.0808 18.9C29.4274 19.2467 29.8408 19.52 30.3208 19.72C30.8141 19.9067 31.3541 20 31.9408 20C32.5274 20 33.1008 19.9067 33.6608 19.72C34.2208 19.52 34.7874 19.1867 35.3608 18.72L37.5808 21.5C36.7808 22.0733 35.8541 22.5133 34.8008 22.82C33.7474 23.1267 32.7141 23.28 31.7008 23.28ZM34.0808 20.98V15.7H37.5808V21.5L34.0808 20.98ZM40.0914 23V9H44.0514V23H40.0914Z" fill="white"/>
<line x1="1" y1="26" x2="44" y2="26" stroke="white" stroke-width="2"/>
</svg>
